<?xml version="1.0" encoding="UTF-8"?>
<svg width="650" height="640" version="1.1" xmlns="http://www.w3.org/2000/svg" xmlns:xlink="http://www.w3.org/1999/xlink">
	<defs>
		<marker id="h" markerHeight="13.244" markerWidth="11.299" orient="auto" refX="5.6495" refY="6.622">
			<polygon transform="translate(-423.37 -314.74)" points="423.37 314.74 430.02 321.23 423.37 327.99 434.67 320.97" fill="#e42322"/>
		</marker>
	</defs>
	<circle cx="325" cy="320" r="280" fill="#f6f6f6"/>
	<use transform="rotate(180,325,320)" xlink:href="#c"/>
	<g id="c" stroke="#000">
		<g id="d">
			<g id="e" stroke="#000">
				<g id="f">
					<path d="m325 320v200a200 200 0 0 0 19.604-0.96289z" fill="#83d0f0" stroke="#000"/>
					<path d="m325 320 19.603 199.04a200 200 0 0 0 19.415-2.8797z" fill="#f19fc1" stroke="#000"/>
					<path d="m325 320 39.018 196.16a200 200 0 0 0 19.039-4.7688z" fill="#fff59a" stroke="#000"/>
					<path d="m325 320 58.057 191.39a200 200 0 0 0 18.48-6.612z" fill="#8fc796" stroke="#000"/>
				</g>
				<use transform="rotate(-22.5,325,320)" xlink:href="#f"/>
			</g>
			<use transform="rotate(-45,325,320)" xlink:href="#e"/>
		</g>
		<use transform="rotate(-90,325,320)" xlink:href="#d"/>
	</g>
	<use transform="rotate(180,325,320)" xlink:href="#a"/>
	<g stroke="#000">
		<g id="a" stroke="#000">
			<g id="b">
				<path d="m390.06 477.06a170 170 0 0 1-65.056 12.94v-170z" fill="#83d0f0" stroke="#000"/>
				<path d="m445.21 440.2a170 170 0 0 1-55.152 36.851l-65.056-157.06z" fill="#f19fc1" stroke="#000"/>
				<path d="m482.06 385.05a170 170 0 0 1-36.852 55.152l-120.21-120.21z" fill="#fff59a" stroke="#000"/>
				<path d="m495 320a170 170 0 0 1-12.941 65.056l-157.06-65.056z" fill="#8fc796" stroke="#000"/>
			</g>
			<use transform="rotate(-90,325.01,320)" xlink:href="#b"/>
		</g>
		<g>
			<path d="m425 320a100 100 0 0 1-100 100v-100z" fill="#fff59a" stroke-width="1.2"/>
			<path d="m325 420a100 100 0 0 1-100-100h100z" fill="#f19fc1"/>
			<path d="m225 320a100 100 0 0 1 100-100v100z" fill="#83d0f0"/>
			<path d="m325 220a100 100 0 0 1 100 100h-100z" fill="#8fc796"/>
		</g>
		<g fill="none">
			<path d="m364.02 123.84 15.606-78.46"/>
			<path d="m401.54 135.22 30.613-73.908"/>
			<path d="m466.42 178.58 56.566-56.567"/>
			<path d="m491.3 208.89 66.515-44.444"/>
			<path d="m501.39 225.72 70.551-37.711"/>
			<path d="m509.78 243.46 73.907-30.614"/>
			<path d="m521.16 280.98 78.46-15.607"/>
			<path d="m524.04 300.4 79.611-7.8415"/>
			<path d="m509.78 396.54 73.908 30.613"/>
			<path d="m466.42 461.42 56.567 56.566"/>
			<path d="m436.11 486.3 44.444 66.515"/>
			<path d="m401.54 504.78 30.614 73.907"/>
			<path d="m266.94 511.39-23.221 76.552"/>
			<path d="m248.46 504.78-30.613 73.908"/>
			<path d="m183.58 461.42-56.566 56.567"/>
			<path d="m158.7 431.11-66.515 44.444"/>
			<path d="m140.22 396.54-73.907 30.614"/>
			<path d="m128.84 359.02-78.46 15.607"/>
			<path d="m140.22 243.46-73.907-30.613"/>
			<path d="m183.58 178.58-56.567-56.566"/>
			<path d="m213.89 153.7-44.444-66.515"/>
			<path d="m248.46 135.22-30.614-73.907"/>
		</g>
	</g>
	<g id="i">
		<path id="g" d="m325.01 320.01h16.184 91.329 101.48 51.707" fill="none" marker-mid="url(#h)" stroke="#e42322" stroke-linecap="round" stroke-linejoin="round" stroke-width="1.2"/>
		<use transform="rotate(-90,325,320)" xlink:href="#g"/>
	</g>
	<use transform="rotate(180,325,320)" xlink:href="#i"/>
	<g stroke="#000">
		<circle cx="325" cy="320" r="10" fill="#fff"/>
		<g stroke-linecap="round" stroke-linejoin="round" stroke-width="1.2">
			<g>
				<path d="m222.03 580.18 14.183-12.036 3.3319 18.3z"/>
				<rect x="555.24" y="277.98" width="13" height="13"/>
				<rect x="535.53" y="211.04" width="13" height="13"/>
				<rect x="524.13" y="190.97" width="13" height="13"/>
			</g>
			<rect x="552.55" y="596.64" width="18" height="18"/>
			<path d="m552.55 590.66v-18l15.588 9z"/>
		</g>
	</g>
	<g>
		<g font-family="DejaVu Sans" font-weight="bold" text-anchor="middle">
			<g font-size="50px">
				<text x="283" y="295">G</text>
				<text x="367" y="295">U</text>
				<text x="282" y="380">A</text>
				<text x="367" y="380">C</text>
			</g>
			<g font-size="40px">
				<text x="351" y="201">U</text>
				<text x="400" y="222">C</text>
				<text x="437" y="259">A</text>
				<text x="458" y="308">G</text>
			</g>
			<g font-size="15px">
				<text x="334" y="140">U</text>
				<text x="352" y="142">C</text>
				<text x="369" y="146">A</text>
				<text x="387" y="151">G</text>
				<text x="404" y="158">U</text>
				<text x="419" y="166">C</text>
				<text x="434" y="176">A</text>
				<text x="449" y="188">G</text>
				<text x="462" y="201">U</text>
				<text x="473" y="214">C</text>
				<text x="483" y="230">A</text>
				<text x="492" y="246">G</text>
				<text x="501" y="264">U</text>
				<text x="504" y="280">C</text>
				<text x="507" y="298">A</text>
				<text x="509" y="316">G</text>
				<text x="509" y="334">U</text>
				<text x="508" y="353">C</text>
				<text x="504" y="370">A</text>
				<text x="499" y="387">G</text>
				<text x="493" y="405">U</text>
				<text x="483" y="421">C</text>
				<text x="474" y="435">A</text>
				<text x="462" y="450">G</text>
				<text x="449" y="463">U</text>
				<text x="436" y="476">C</text>
				<text x="420" y="484">A</text>
				<text x="404" y="492">G</text>
				<text x="387" y="500">U</text>
				<text x="370" y="505">C</text>
				<text x="352" y="508">A</text>
				<text x="334" y="510">G</text>
				<text x="315" y="510">U</text>
				<text x="297" y="509">C</text>
				<text x="280" y="504">A</text>
				<text x="262" y="499">G</text>
				<text x="245" y="492">U</text>
				<text x="229" y="485">C</text>
				<text x="214" y="474">A</text>
				<text x="200" y="462">G</text>
				<text x="187" y="449">U</text>
				<text x="176" y="435">C</text>
				<text x="166" y="420">A</text>
				<text x="157" y="404">G</text>
				<text x="150" y="387">U</text>
				<text x="145" y="370">C</text>
				<text x="142" y="352">A</text>
				<text x="140" y="334">G</text>
				<text x="140" y="316">U</text>
				<text x="141" y="298">C</text>
				<text x="145" y="280">A</text>
				<text x="150" y="263">G</text>
				<text x="157" y="246">U</text>
				<text x="165" y="230">C</text>
				<text x="176" y="215">A</text>
				<text x="188" y="201">G</text>
				<text x="200" y="188">U</text>
				<text x="214" y="176">C</text>
				<text x="229" y="166">A</text>
				<text x="246" y="158">G</text>
				<text x="262" y="151">U</text>
				<text x="280" y="146">C</text>
				<text x="297" y="142">A</text>
				<text x="316" y="140">G</text>
			</g>
			<g font-size="40px">
				<text x="457" y="359">U</text>
				<text x="298" y="466">U</text>
				<text x="192" y="307">U</text>
				<text x="212" y="259">C</text>
				<text x="437" y="409">C</text>
				<text x="250" y="446">C</text>
				<text x="400" y="446">A</text>
				<text x="249" y="222">A</text>
				<text x="212" y="409">A</text>
				<text x="299" y="202">G</text>
				<text x="192" y="360">G</text>
				<text x="351" y="467">G</text>
			</g>
		</g>
		<g fill="#e42322" font-family="Liberation Sans" font-size="15px" font-weight="bold" text-anchor="middle">
			<text x="325" y="325">5´</text>
			<text x="596" y="325">3´</text>
			<text x="57" y="325">3´</text>
			<text x="327" y="55">3´</text>
			<text x="327" y="596">3´</text>
		</g>
		<g font-family="Liberation Sans" font-size="16" text-anchor="middle">
			<text x="85" y="347">Arg (R)</text>
			<text x="95" y="394">Ser (S)</text>
			<text x="110" y="438">Lys (K)</text>
			<text><tspan x="136" y="470">Asn</tspan><tspan x="136" y="490">(N)</tspan></text>
			<text><tspan x="191" y="517">Thr</tspan><tspan x="191" y="535">(T)</tspan></text>
			<text transform="rotate(-69.525)" x="-418.75659" y="424.67981">Met (M)</text>
			<text><tspan x="290" y="555">Ile</tspan><tspan x="290" y="575">(I)</tspan></text>
			<text><tspan x="371" y="554">Arg</tspan><tspan x="371" y="572">(R)</tspan></text>
			<text><tspan x="439" y="530">Gln</tspan><tspan x="439" y="548">(Q)</tspan></text>
			<text><tspan x="477" y="503">His</tspan><tspan x="477" y="521">(H)</tspan></text>
			<text><tspan x="527" y="449">Pro</tspan><tspan x="527" y="467">(P)</tspan></text>
			<text><tspan x="558" y="360">Leu</tspan><tspan x="558" y="378">(L)</tspan></text>
			<text x="561" y="313">Trp (W)</text>
			<text x="555" y="255">Cys (C)</text>
			<text><tspan x="512" y="163">Tyr</tspan><tspan x="512" y="181">(Y)</tspan></text>
			<text><tspan x="459" y="116">Ser</tspan><tspan x="459" y="134">(S)</tspan></text>
			<text><tspan x="395" y="88">Leu</tspan><tspan x="395" y="108">(L)</tspan></text>
			<text><tspan x="349" y="79">Phe</tspan><tspan x="349" y="97">(F)</tspan></text>
			<text><tspan x="278" y="84">Gly</tspan><tspan x="278" y="102">(G)</tspan></text>
			<text><tspan x="212" y="104">Glu</tspan><tspan x="212" y="124">(E)</tspan></text>
			<text><tspan x="173" y="131">Asp</tspan><tspan x="173" y="149">(D)</tspan></text>
			<text><tspan x="126" y="183">Ala</tspan><tspan x="126" y="201">(A)</tspan></text>
			<text><tspan x="87" y="272">Val</tspan><tspan x="87" y="292">(V)</tspan></text>
		</g>
		<text x="577" y="588" font-family="DejaVu Sans" font-size="20px">Start</text>
		<text x="577" y="610" font-family="DejaVu Sans" font-size="20px">Stop</text>
	</g>
</svg>
